<svg id="Capa_1" enable-background="new 0 0 512 512" height="512" viewBox="0 0 512 512" width="512" xmlns="http://www.w3.org/2000/svg"><g><g><path d="m495.423 231.688-.1-.135c-8.243-11.083-11.05-25.292-7.641-38.678 4.99-19.712-3.568-40.359-21.038-50.762-11.885-7.077-19.95-19.131-21.957-32.818l-.144-.983c-2.864-19.538-18.206-34.883-37.743-37.752-13.967-2.051-26.329-10.132-33.811-22.103l-.465-.745c-10.609-16.971-30.954-25.162-50.364-20.276-13.384 3.37-27.575.548-38.651-7.687l-.095-.07c-16.278-12.101-38.564-12.099-54.84.006l-.087.065c-11.097 8.253-25.32 11.069-38.725 7.668l-3.086-.783c-19.044-4.832-38.882 4.25-47.668 21.823-5.798 11.595-16.897 19.625-29.724 21.504l-5.505.806c-18.687 2.737-33.366 17.409-36.112 36.094-2.113 14.379-10.222 27.189-22.315 35.25l-2.038 1.359c-16.162 10.775-23.776 30.567-19.003 49.396 3.398 13.405.582 27.627-7.668 38.725l-.07.095c-12.101 16.278-12.099 38.564.006 54.84l.065.087c.047.063.094.126.14.189 9.586 13.028 24.592 20.957 40.766 20.957h396.896c16.174 0 31.18-7.929 40.766-20.957.046-.063.093-.126.14-.189l.065-.087c12.108-16.274 12.111-38.562.006-54.839z" fill="#60d9a7"/><path d="m99.538 266.604c0-104.666 33.316-187.678 97.181-237.994-2.329-.221-4.655-.608-6.956-1.192l-3.086-.783c-19.044-4.832-38.882 4.25-47.668 21.823-5.798 11.595-16.897 19.625-29.724 21.504l-5.505.806c-18.687 2.737-33.366 17.409-36.112 36.094-2.113 14.379-10.222 27.189-22.315 35.25l-2.038 1.359c-16.162 10.774-23.776 30.567-19.003 49.396 3.398 13.405.582 27.627-7.668 38.725l-.07.095c-12.101 16.278-12.099 38.564.006 54.84l.065.087c.047.063.094.126.14.189 9.586 13.028 24.592 20.957 40.766 20.957h45.086c-2.039-13.422-3.099-27.165-3.099-41.156z" fill="#00cd8c"/><circle cx="255.998" cy="298.705" fill="#ffdebb" r="202.69"/><g fill="#ffca8a"><g><path d="m319.606 190.545c-7.248-7.248-18.998-7.248-26.246 0l-100.969 100.969c-7.248 7.248-7.248 18.998 0 26.246s18.998 7.248 26.246 0l100.969-100.969c7.248-7.248 7.248-18.998 0-26.246z"/><path d="m242.765 148.347c-7.248-7.248-18.998-7.248-26.246 0l-66.326 66.326c-7.248 7.248-7.248 18.998 0 26.246s18.998 7.248 26.246 0l66.326-66.326c7.247-7.248 7.247-18.998 0-26.246z"/><path d="m361.804 267.387c-7.248-7.248-18.998-7.248-26.246 0l-66.326 66.326c-7.248 7.248-7.248 18.998 0 26.246s18.998 7.248 26.246 0l66.326-66.326c7.248-7.248 7.248-18.999 0-26.246z"/></g><path d="m99.538 266.604c0-41.482 5.233-79.562 15.526-113.555-38.076 36.849-61.756 88.484-61.756 145.657 0 103.797 78.026 189.357 178.622 201.261-79.298-47.479-132.392-134.215-132.392-233.363z"/></g></g><g><path d="m223.95 323.083 100.937-100.938c10.157-10.157 10.157-26.683 0-36.841-10.18-10.18-26.658-10.182-36.84 0l-100.938 100.938c-10.157 10.157-10.157 26.683 0 36.841 10.156 10.156 26.683 10.157 36.841 0zm-26.238-26.238 100.938-100.937c4.321-4.32 11.313-4.32 15.634 0 4.31 4.311 4.31 11.325 0 15.635l-100.937 100.936c-4.311 4.311-11.324 4.31-15.635 0-4.31-4.31-4.31-11.324 0-15.634z"/><path d="m248.07 179.961c10.157-10.157 10.157-26.683 0-36.84-10.158-10.157-26.684-10.156-36.841 0l-66.305 66.306c-10.157 10.157-10.157 26.683 0 36.84 10.181 10.181 26.658 10.182 36.84 0zm-92.543 55.702c-4.31-4.31-4.31-11.324 0-15.634l66.305-66.305c4.309-4.31 11.324-4.311 15.635 0 4.31 4.31 4.31 11.324 0 15.634l-66.306 66.305c-4.32 4.321-11.313 4.321-15.634 0z"/><path d="m367.071 262.122c-10.181-10.181-26.658-10.182-36.84 0l-66.306 66.305c-10.157 10.157-10.157 26.684 0 36.841 10.181 10.181 26.659 10.182 36.841 0l66.305-66.305c10.182-10.182 10.182-26.659 0-36.841zm-10.603 26.238-66.305 66.305c-4.321 4.321-11.313 4.321-15.635 0-4.31-4.311-4.31-11.324 0-15.635l66.306-66.305c4.321-4.321 11.313-4.321 15.634 0 4.321 4.32 4.321 11.313 0 15.635z"/><path d="m161.568 399.447v16.705c0 4.141 3.357 7.498 7.498 7.498s7.498-3.357 7.498-7.498v-16.705c0-4.141-3.357-7.498-7.498-7.498-4.141.001-7.498 3.358-7.498 7.498z"/><path d="m335.432 399.447v16.705c0 4.141 3.357 7.498 7.498 7.498s7.498-3.357 7.498-7.498v-16.705c0-4.141-3.357-7.498-7.498-7.498s-7.498 3.358-7.498 7.498z"/><path d="m255.998 433.594c10.951 0 21.365-4.743 28.571-13.013 2.72-3.122 2.395-7.858-.727-10.578-3.121-2.721-7.857-2.396-10.578.726-4.358 5.001-10.651 7.87-17.266 7.87s-12.908-2.868-17.266-7.87c-2.72-3.122-7.457-3.447-10.578-.726-3.122 2.72-3.447 7.456-.727 10.578 7.206 8.27 17.62 13.013 28.571 13.013z"/><path d="m501.366 227.266c-.094-.213-11.308-13.57-6.49-32.49 5.758-22.749-4.302-47.022-24.463-59.027-9.987-5.947-16.682-15.953-18.368-27.452l-.144-.983c-3.37-22.986-21.076-40.696-44.061-44.07-20.324-2.984-28.721-19.114-28.996-19.396-12.373-19.796-35.896-29.268-58.535-23.568-11.246 2.832-23.031.487-32.32-6.419l-.11-.082c-19.073-14.179-44.7-14.176-63.761 0l-.095.071c-16.986 12.632-34.322 5.69-35.478 5.632-22.286-5.655-45.922 5.167-56.203 25.73-4.697 9.394-13.705 15.91-24.095 17.432l-5.504.806c-22.13 3.24-39.181 20.284-42.433 42.41-3.176 21.616-20.553 30.919-21.086 31.45-18.764 12.509-27.648 35.601-22.106 57.461 2.856 11.264.517 23.071-6.403 32.381l-.082.11c-14.179 19.073-14.176 44.7 0 63.762l.188.253c8.783 11.937 21.517 20.038 35.621 22.866 7.917 108.694 98.877 194.712 209.555 194.712 60.817 0 118.615-26.338 158.573-72.262 2.718-3.124 2.389-7.86-.735-10.578-3.123-2.717-7.859-2.389-10.578.735-37.109 42.65-90.783 67.11-147.26 67.11-105.133 0-192.535-83.967-195.072-190.794-1.149-52.182 18.152-103.524 57.405-142.612 1.436-1.428 2.204-3.335 2.208-5.297.014-6.637-8.049-10.047-12.787-5.33-39.782 39.611-61.845 92.537-61.876 148.758-26.006-7.585-40.844-38.654-23.22-62.362.145-.33 15.644-18.926 8.999-45.138-3.983-15.711 2.402-32.308 15.889-41.299.646-.649 23.328-12.658 27.604-41.746 2.281-15.524 14.244-27.481 29.768-29.755l5.504-.806c15.238-2.232 28.447-11.788 35.334-25.563 7.154-14.306 23.599-21.836 39.104-17.902 1.204.052 24.835 9.179 48.106-8.128l.095-.071c13.719-10.203 32.155-10.205 45.859-.017.33.145 18.888 15.609 45.053 9.02 16.306-4.106 33.247 2.717 42.158 16.974.343.351 11.826 22.217 39.534 26.285 16.381 2.405 29 15.027 31.402 31.409.208.543 1.756 24.901 25.677 39.144 14.504 8.637 21.741 26.099 17.601 42.453-3.984 15.641-.744 32.039 8.885 44.987l.103.139c10.204 13.719 10.202 32.153-.008 45.875-.266.26-7.886 12.032-23.201 16.5-.062-115.897-94.267-209.977-210.123-209.977-45.481 0-88.589 14.355-124.628 40.947-2.246 1.658-3.348 4.379-2.975 7.072.775 5.572 7.279 8.388 11.879 4.995 33.708-24.872 73.724-38.019 115.724-38.019 109.776 0 199.752 91.552 194.931 203.672-.001.027.002.054.001.081-1.496 34.157-11.858 67.184-30.207 96.009-2.224 3.493-1.195 8.127 2.298 10.351 3.477 2.214 8.118 1.211 10.351-2.299 18.666-29.322 29.662-62.676 32.185-97.276 14.104-2.829 26.837-10.932 35.632-22.885l.166-.225c14.19-19.067 14.193-44.695.011-63.764z"/></g></g></svg>