<svg height="512pt" viewBox="0 -57 512.00062 512" width="512pt" xmlns="http://www.w3.org/2000/svg"><path d="m472.9375 183.9375s-7.070312 144.378906-229.648438 144.378906h-2.796874c-63.34375 0-109.230469-11.695312-142.46875-28.421875-9.101563-4.582031-17.253907-9.539062-24.558594-14.742187-9.1875-6.539063-17.027344-13.460938-23.722656-20.492188-36.839844-38.703125-38.898438-80.722656-38.898438-80.722656" fill="#535272"/><path d="m322.300781 321.453125 6.03125 23.695313c7.167969 20.359374-7.9375 41.695312-29.523437 41.695312h-116.636719c-21.585937 0-36.691406-21.335938-29.523437-41.695312l6.222656-24.234376" fill="#e6e6e6"/><path d="m447.34375 151.898438c2.984375 1.648437 5.785156 3.351562 8.359375 5.113281 11.496094 7.871093 17.234375 17.621093 17.234375 27.273437 0 8.105469-4.324219 15.898438-12.277344 23.167969-31-28.3125-117.230468-48.679687-218.769531-48.679687s-187.769531 20.367187-218.769531 48.679687c-7.953125-7.269531-12.277344-15.0625-12.277344-23.167969 0-39.675781 103.445312-71.839844 231.046875-71.839844 25.289063 0 49.625 1.265626 72.398437 3.597657" fill="#e6e6e6"/><path d="m338.210938 165.445312c-29.320313-4.1875-61.945313-6.523437-96.324219-6.523437-101.535157 0-187.769531 20.367187-218.765625 48.679687 30.996094 28.308594 117.230468 48.675782 218.765625 48.675782 101.539062 0 187.773437-20.367188 218.769531-48.675782-11.097656-10.136718-29.269531-19.253906-52.691406-26.78125" fill="#ffdb72"/><path d="m499.292969 18.613281c1.601562.097657 2.425781 1.972657 1.414062 3.21875-2.648437 3.269531-5.761719 8.257813-6.441406 9.195313-8.011719 11.027344-14.753906 23.015625-20.046875 35.574218-13.0625 30.984376-9.910156 66.890626-33.695312 93.253907-14.492188 16.0625-36.464844 25.074219-58.0625 23.808593-21.597657-1.261718-42.367188-12.777343-54.886719-30.417968-7.796875-10.988282-12.457031-24.296875-12.5-37.769532-.0625-18.6875 8.394531-36.78125 20.847656-50.359374 13.59375-14.816407 34.503906-23.960938 53.175781-30.550782 32.136719-11.339844 66.5-17.234375 100.566406-16.363281 3.210938.085937 6.421876.222656 9.628907.410156zm0 0" fill="#78e08f"/><path d="m79.910156 301.632812c.824219 0 1.65625-.09375 2.492188-.289062l.480468-.113281c5.832032-1.371094 9.449219-7.207031 8.078126-13.035157-1.371094-5.832031-7.210938-9.445312-13.035157-8.078124l-.484375.113281c-5.828125 1.367187-9.445312 7.207031-8.078125 13.035156 1.175781 4.996094 5.628907 8.367187 10.546875 8.367187zm0 0"/><path d="m283.964844 73.207031c-2.644532 5.375-.429688 11.875 4.945312 14.519531 1.539063.757813 3.171875 1.117188 4.777344 1.117188 4.003906 0 7.851562-2.226562 9.738281-6.0625 6.261719-12.726562 5.695313-27.613281-1.511719-39.828125-3.636718-6.160156-3.738281-13.875-.265624-20.128906 2.910156-5.234375 1.023437-11.835938-4.210938-14.746094-5.234375-2.90625-11.839844-1.023437-14.746094 4.214844-7.195312 12.949219-6.988281 28.921875.542969 41.683593 3.480469 5.898438 3.753906 13.085938.730469 19.230469zm0 0"/><path d="m211.507812 66.496094c-2.644531 5.375-.429687 11.875 4.941407 14.515625 1.539062.757812 3.171875 1.117187 4.78125 1.117187 4 0 7.851562-2.226562 9.738281-6.058594 6.257812-12.726562 5.691406-27.617187-1.515625-39.832031-3.636719-6.160156-3.738281-13.871093-.261719-20.125 2.90625-5.234375 1.023438-11.839843-4.214844-14.746093-5.234374-2.910157-11.835937-1.023438-14.746093 4.210937-7.195313 12.953125-6.988281 28.925781.542969 41.6875 3.480468 5.894531 3.757812 13.085937.734374 19.230469zm0 0"/><path d="m142.242188 71.753906c-2.644532 5.375-.433594 11.875 4.941406 14.519532 1.539062.757812 3.171875 1.117187 4.777344 1.117187 4.003906 0 7.855468-2.226563 9.738281-6.058594 6.261719-12.726562 5.695312-27.617187-1.511719-39.832031-3.636719-6.160156-3.738281-13.871094-.261719-20.128906 2.90625-5.234375 1.019531-11.835938-4.214843-14.746094-5.234376-2.90625-11.835938-1.019531-14.746094 4.214844-7.195313 12.953125-6.988282 28.925781.542968 41.683594 3.480469 5.898437 3.753907 13.089843.734376 19.230468zm0 0"/><path d="m510.902344 16.132812c-1.949219-4.417968-6.148438-7.339843-10.964844-7.625-3.328125-.199218-6.691406-.34375-9.996094-.425781-34.367187-.882812-70.484375 4.988281-104.453125 16.976563-18.5 6.527344-41.761719 16.230468-57.554687 33.445312-12.339844 13.453125-20.359375 29.925782-22.863282 46.5-20.488281-1.777344-41.691406-2.683594-63.179687-2.683594-62.773437 0-121.941406 7.644532-166.59375 21.53125-48.828125 15.179688-74.824219 36.097657-75.2734375 60.511719-.0078125.066407-.0078125.132813-.0078125.199219-.0039062.144531-.015625.292969-.015625.441406 0 .089844.0117188.179688.015625.269532 0 .089843-.0078125.171874 0 .261718.085937 1.777344 2.546875 44.03125 38.675781 84.210938 2.144532 2.378906 5.097656 3.589844 8.070313 3.589844 2.582031 0 5.171875-.914063 7.246093-2.777344 4.453126-4.003906 4.816407-10.863282.8125-15.316406-7.300781-8.121094-12.988281-16.351563-17.4375-24.195313 42.769532 22.765625 118.664063 36.789063 204.507813 36.789063 85.855469 0 161.761719-14.03125 204.527344-36.800782-3.734375 6.585938-8.339844 13.441406-14.046875 20.277344-16.152344 19.339844-37.828125 34.78125-64.429688 45.902344-33.84375 14.144531-75.78125 21.320312-124.648437 21.320312h-2.800781c-44.542969 0-83.410157-5.96875-115.523438-17.746094-.753906-.277343-1.507812-.554687-2.253906-.835937-5.601563-2.121094-11.859375.695313-13.980469 6.296875-2.125 5.601562.695313 11.859375 6.296875 13.984375.816406.308594 1.636719.613281 2.46875.917969 8.914062 3.269531 18.292969 6.113281 28.105469 8.546875l-3.347657 13.042969c-3.824218 11.289062-2.644531 23.648437 3.082032 33.972656h-75.335938c-5.988281 0-10.84375 4.855468-10.84375 10.84375 0 5.988281 4.855469 10.84375 10.84375 10.84375h343.773438c5.988281 0 10.84375-4.855469 10.84375-10.84375 0-5.988282-4.855469-10.84375-10.84375-10.84375h-78.132813c5.722657-10.320313 6.90625-22.671875 3.085938-33.960938l-3.164063-12.441406c14.902344-3.554688 28.847656-8.046875 41.734375-13.503906 29.914063-12.667969 54.363281-30.414063 72.667969-52.742188 31.496094-38.421875 33.722656-76.914062 33.800781-78.535156.003907-.089844-.003906-.179688 0-.269531 0-.085938.011719-.171875.011719-.257813 0-.132812-.011719-.261718-.011719-.394531-.003906-.09375-.003906-.183594-.011719-.277344-.25-13.417969-8.003906-26.019531-21.929687-35.550781-.074219-.054688-.15625-.105469-.234375-.160156 6.890625-13.816406 10.054688-28.589844 13.136719-43.03125 2.574219-12.054688 5.003906-23.4375 9.480469-34.058594 4.996093-11.847656 11.332031-23.089844 18.832031-33.414062.226562-.316407.675781-.980469 1.265625-1.875 1.121094-1.703126 3.207031-4.871094 4.828125-6.867188 3.035156-3.746094 3.714843-8.824219 1.765625-13.242188zm-193.078125 332.40625c.078125.3125.171875.621094.277343.925782 2.234376 6.34375 1.285157 13.125-2.597656 18.613281-3.886718 5.488281-9.96875 8.636719-16.695312 8.636719h-116.636719c-6.722656 0-12.808594-3.148438-16.695313-8.636719-3.882812-5.488281-4.832031-12.269531-2.597656-18.613281.105469-.296875.195313-.601563.273438-.90625l3.6875-14.359375c22.617187 4.003906 47.234375 6.023437 73.652344 6.023437h2.796874c25.410157 0 49.113282-1.878906 70.996094-5.582031zm-296.125-163.757812c.480469-25.453125 84.152343-60.773438 220.191406-60.773438 21.523437 0 42.734375.929688 63.179687 2.765626 1.347657 8.789062 4.304688 17.480468 8.703126 25.523437-23.105469-2.316406-47.171876-3.503906-71.886719-3.503906-96.335938 0-180.148438 17.667969-218.667969 45.523437-1.097656-5.144531-1.4375-8.554687-1.519531-9.535156zm220.1875 61.367188c-85.246094 0-164.046875-15.195313-200.648438-37.832032 36.601563-22.640625 115.402344-37.832031 200.648438-37.832031 23.679687 0 46.71875 1.125 68.832031 3.308594-4.382812 8.746093-8.234375 17.734375-11.5 26.925781-2.007812 5.640625.941406 11.84375 6.582031 13.851562 1.203125.425782 2.429688.628907 3.632813.628907 4.460937 0 8.640625-2.773438 10.21875-7.214844 3.847656-10.824219 8.582031-21.347656 14.121094-31.472656.097656.011719.195312.023437.292968.039062 13.476563 10.925781 30.269532 17.632813 47.757813 18.65625 1.582031.09375 3.160156.140625 4.738281.140625 6.988281 0 13.925781-.917968 20.648438-2.648437 14.238281 4.734375 26.175781 10.03125 35.292968 15.632812-36.609375 22.632813-115.386718 37.816407-200.617187 37.816407zm220.195312-61.382813c-.085937 1.015625-.433593 4.4375-1.519531 9.550781-7.054688-5.097656-15.679688-9.875-25.792969-14.304687 5.015625-3.519531 9.664063-7.582031 13.804688-12.171875.34375-.382813.675781-.769532 1.011719-1.15625 7.964843 5.457031 12.386718 11.867187 12.496093 18.082031zm2.144531-121.660156c-5.273437 12.511719-8.039062 25.449219-10.710937 37.957031-4.160156 19.480469-8.085937 37.882812-21.046875 52.246094-12.230469 13.554687-31.152344 21.316406-49.375 20.246094-13.777344-.804688-27.355469-6.671876-37.726562-15.917969 9.988281-14.605469 21.738281-28.128907 35.027343-40.15625 14.875-13.464844 31.503907-24.984375 49.433594-34.238281 5.320313-2.746094 7.410156-9.289063 4.660156-14.609376-2.746093-5.324218-9.285156-7.410156-14.609375-4.664062-19.59375 10.117188-37.773437 22.710938-54.039062 37.429688-12.765625 11.558593-24.234375 24.375-34.253906 38.152343-3.660157-7.460937-5.644532-15.519531-5.671876-23.394531-.046874-14.796875 6.511719-30.46875 18-42.988281 12.691407-13.835938 33.921876-22.410157 48.789063-27.65625 29.214844-10.3125 60.089844-15.746094 89.746094-15.828125-7.152344 10.457031-13.273438 21.679687-18.222657 33.421875zm0 0"/></svg>