<svg id="Capa_1" enable-background="new 0 0 512 512" height="512" viewBox="0 0 512 512" width="512" xmlns="http://www.w3.org/2000/svg"><g><g><circle cx="256" cy="256" fill="#e6f7fe" r="248.5"/><path d="m449.88 411.45c-45.54 56.73-115.47 93.05-193.88 93.05-137.24 0-248.5-111.26-248.5-248.5 0-66.46 26.09-126.82 68.58-171.41-34.15 42.56-54.58 96.6-54.58 155.41 0 137.24 111.26 248.5 248.5 248.5 70.76 0 134.62-29.58 179.88-77.05z" fill="#d3effd"/><circle cx="256" cy="256" fill="#ffe07d" r="208.5"/><path d="m419.86 384.78c-38.2 48.52-97.45 79.72-163.86 79.72-114.97 0-208.5-93.53-208.5-208.5 0-55.66 21.92-106.3 57.6-143.73-27.93 35.47-44.6 80.19-44.6 128.73 0 114.97 93.53 208.5 208.5 208.5 59.28 0 112.86-24.87 150.86-64.72z" fill="#ffde5c"/><path d="m231.729 392.495c15.545 2.673 25.874 19.285 28.67 24.305.468.84.276 1.886-.458 2.508-4.435 3.752-20.233 15.916-35.801 13.238-15.545-2.673-25.874-19.285-28.67-24.305-.468-.84-.276-1.886.458-2.508 4.434-3.751 20.233-15.915 35.801-13.238z" fill="#b7e546"/><path d="m135.576 362.164c-36.35-25.115-59.733-77.151-41.839-103.051s74.838-22.437 111.188 2.679 38.342 62.372 20.448 88.272c-17.895 25.898-53.447 37.215-89.797 12.1z" fill="#fff9df"/><path d="m223.62 352.47c-18.39 24.17-52.84 34.02-88.04 9.69-36.35-25.11-59.74-77.15-41.84-103.05 2.71-3.91 6.3-7.16 10.59-9.76-15.17 26.55 7.92 76.4 43.25 100.81 28.57 19.74 56.65 16.98 76.04 2.31z" fill="#fff3bf"/><circle cx="169.016" cy="311.125" fill="#ffde5c" r="30.5"/><path d="m198.13 320.23c-.9 2.86-2.23 5.64-4.02 8.23-9.58 13.86-28.57 17.33-42.43 7.76-13.86-9.58-17.33-28.57-7.76-42.43 4.02-5.82 9.71-9.81 15.98-11.77-3.89 12.41.51 26.41 11.78 34.2 8.04 5.55 17.8 6.71 26.45 4.01z" fill="#ffc736"/><path d="m150.887 153.994c-7.567-13.839-.973-32.256 1.222-37.566.367-.889 1.306-1.389 2.249-1.2 5.695 1.142 25.043 5.959 32.622 19.819 7.567 13.839.973 32.256-1.222 37.566-.367.889-1.306 1.389-2.249 1.2-5.695-1.142-25.043-5.959-32.622-19.819z" fill="#b7e546"/><path d="m189.28 161.24c-1.1 5.11-2.66 9.27-3.52 11.37-.37.89-1.31 1.39-2.25 1.2-5.7-1.14-25.04-5.96-32.62-19.82-7.57-13.83-.98-32.25 1.22-37.56.37-.89 1.31-1.39 2.25-1.2 1.39.28 3.58.77 6.23 1.57-1.68 7.8-2.27 17.83 2.3 26.19 5.73 10.48 18.19 15.79 26.39 18.25z" fill="#abd641"/><path d="m400.156 241.484c10.667-11.619 30.226-11.303 35.96-10.935.96.062 1.735.79 1.86 1.744.752 5.76 2.42 25.629-8.263 37.265-10.667 11.619-30.226 11.303-35.96 10.935-.96-.062-1.735-.79-1.86-1.744-.752-5.76-2.42-25.629 8.263-37.265z" fill="#b7e546"/><path d="m435.13 260.88c-1.3 3.13-3.06 6.11-5.42 8.68-10.66 11.62-30.22 11.3-35.96 10.93-.96-.06-1.73-.79-1.86-1.74-.75-5.76-2.42-25.63 8.27-37.27 2.48-2.7 5.43-4.75 8.58-6.31-4.58 11.05-3.43 24.09-2.85 28.58.13.95.9 1.68 1.86 1.74 4.41.28 16.96.54 27.38-4.61z" fill="#abd641"/><path d="m259.94 419.31c-4.43 3.75-20.23 15.91-35.8 13.24-15.55-2.68-25.87-19.29-28.67-24.31-.47-.84-.28-1.89.46-2.51 2.4-2.03 8.15-6.54 15.4-9.81.04.11.08.22.14.32 2.8 5.02 13.12 21.63 28.67 24.31 7.12 1.22 14.29-.66 20.4-3.42.27.77.04 1.64-.6 2.18z" fill="#abd641"/><g fill="#ffde5c"><circle cx="376.706" cy="336.143" r="25"/><circle cx="295.579" cy="314.87" r="20"/><circle cx="114.5" cy="191.5" r="20"/><circle cx="313.084" cy="392.389" r="28.5"/></g><path d="m401.37 340.25c-.19 1.14-.46 2.28-.82 3.41-4.15 13.16-18.19 20.48-31.36 16.33s-20.48-18.19-16.33-31.36c2.06-6.54 6.56-11.63 12.18-14.6-2.03 12.11 5.11 24.17 17.15 27.96 6.63 2.09 13.48 1.27 19.18-1.74z" fill="#ffc736"/><path d="m315.57 315.61c-.07 1.75-.37 3.52-.92 5.27-3.31 10.53-14.55 16.38-25.08 13.07-10.54-3.32-16.39-14.55-13.07-25.09 1.93-6.11 6.51-10.65 12.08-12.73-.33 8.78 5.2 17.05 13.99 19.82 4.42 1.39 8.97 1.16 13-.34z" fill="#ffc736"/><path d="m134.48 192.25c-.39 10.7-9.18 19.25-19.98 19.25-11.05 0-20-8.95-20-20 0-8.59 5.41-15.92 13.02-18.75-.02.25-.02.5-.02.75 0 11.05 8.95 20 20 20 2.45 0 4.81-.44 6.98-1.25z" fill="#ffc736"/><path d="m340.87 398.76c-.17.73-.37 1.46-.6 2.19-4.73 15.02-20.74 23.35-35.75 18.62s-23.35-20.73-18.62-35.74c2.16-6.87 6.69-12.35 12.4-15.81-3.3 14.35 4.94 29.05 19.22 33.55 8.14 2.57 16.58 1.29 23.35-2.81z" fill="#ffc736"/><circle cx="301.375" cy="180.25" fill="#df646e" r="85.875"/><path d="m375.72 223.25c-14.86 25.63-42.59 42.87-74.35 42.87-47.42 0-85.87-38.44-85.87-85.87 0-19.54 6.53-37.57 17.53-52-7.33 12.64-11.53 27.33-11.53 43 0 47.43 38.45 85.87 85.87 85.87 27.88 0 52.66-13.28 68.35-33.87z" fill="#dc4955"/><g><path d="m304.223 246.431c-3.889 0-7.561-1.818-9.929-4.948-2.517-3.328-3.213-7.669-1.862-11.612l9.591-27.99c2.236-6.521 9.359-10.007 15.878-7.772l28.05 9.612c3.95 1.354 6.953 4.571 8.034 8.606 1.076 4.017.091 8.282-2.635 11.409-11.714 13.439-28.643 21.705-46.446 22.677-.227.011-.455.018-.681.018z" fill="#dc4955"/></g><g><path d="m266.368 233.558c-2.942 0-5.823-1.042-8.109-3.005-13.616-11.69-22.012-28.678-23.034-46.605-.237-4.144 1.601-8.118 4.916-10.632 3.329-2.524 7.674-3.227 11.625-1.871l28.295 9.696c3.158 1.081 5.707 3.329 7.175 6.328s1.681 6.391.598 9.549l-9.622 28.081c-1.348 3.931-4.547 6.929-8.56 8.02-1.085.294-2.189.439-3.284.439z" fill="#dc4955"/></g><g><path d="m288.963 167.626c-1.34 0-2.702-.217-4.039-.675l-28.492-9.765c-3.924-1.344-6.92-4.538-8.015-8.544-1.091-3.994-.139-8.253 2.547-11.394 11.824-13.821 29.026-22.266 47.198-23.169 4.132-.199 8.086 1.649 10.579 4.961 2.5 3.323 3.189 7.654 1.843 11.585v.001l-9.784 28.551c-1.776 5.182-6.641 8.449-11.837 8.449z" fill="#dc4955"/></g><g><path d="m355.064 190.272c-1.362 0-2.731-.223-4.056-.676 0-.001 0-.001 0-.001l-28.245-9.679c-6.521-2.235-10.007-9.357-7.772-15.877l9.752-28.461c1.352-3.943 4.563-6.944 8.592-8.028 4.014-1.083 8.278-.103 11.41 2.616 13.643 11.849 21.957 28.992 22.81 47.038.195 4.126-1.665 8.072-4.974 10.557-2.201 1.653-4.842 2.511-7.517 2.511zm.804-14.867.002.001v-.001c-.001 0-.001 0-.002 0z" fill="#dc4955"/></g></g><g><path d="m437.02 74.98c-48.353-48.351-112.64-74.98-181.02-74.98-59.843 0-118.062 21.083-163.933 59.365-3.18 2.653-3.606 7.383-.953 10.563s7.382 3.607 10.564.952c43.179-36.034 97.986-55.88 154.322-55.88 132.888 0 241 108.112 241 241s-108.112 241-241 241-241-108.112-241-241c0-59.85 22.088-117.236 62.195-161.589 2.778-3.072 2.54-7.815-.533-10.593-3.073-2.779-7.816-2.541-10.593.532-42.605 47.116-66.069 108.076-66.069 171.65 0 68.38 26.629 132.668 74.98 181.02 48.353 48.351 112.64 74.98 181.02 74.98s132.667-26.629 181.02-74.98c48.351-48.352 74.98-112.64 74.98-181.02s-26.629-132.668-74.98-181.02z"/><path d="m446.628 340.779c3.84 1.553 8.212-.305 9.763-4.146 10.357-25.653 15.609-52.781 15.609-80.633 0-119.103-96.897-216-216-216s-216 96.897-216 216 96.897 216 216 216c37.473 0 74.417-9.792 106.838-28.317 31.428-17.958 58.094-43.742 77.115-74.566 2.175-3.524 1.081-8.146-2.444-10.321-3.524-2.176-8.146-1.081-10.321 2.444-37.002 59.961-100.998 95.76-171.188 95.76-110.832 0-201-90.168-201-201s90.168-201 201-201 201 90.168 201 201c0 25.918-4.885 51.157-14.519 75.018-1.55 3.84.306 8.211 4.147 9.761z"/><path d="m131.313 368.335c14.773 10.207 30.551 15.312 45.688 15.312 14.991 0 29.354-5.01 41.475-15.032 3.192-2.64 3.64-7.367 1-10.56-2.639-3.191-7.366-3.64-10.559-1.001-19.251 15.92-45.076 15.524-69.078-1.061-34.185-23.619-54.711-71.227-39.932-92.617s66.569-19.034 100.755 4.586c23.453 16.203 33.119 39.726 25.858 62.922-1.237 3.953.964 8.16 4.917 9.397 3.951 1.235 8.16-.964 9.398-4.917 9.327-29.797-2.504-59.607-31.647-79.744-37.451-25.874-100.052-31.987-121.622-.771-21.568 31.218 6.296 87.61 43.747 113.486z"/><path d="m190.617 279.86c-17.238-11.91-40.953-7.576-52.864 9.664-11.91 17.238-7.576 40.953 9.663 52.864 6.578 4.545 14.097 6.724 21.545 6.724 12.071 0 23.953-5.727 31.319-16.387 5.77-8.352 7.942-18.449 6.117-28.434-1.825-9.984-7.429-18.66-15.78-24.431zm-2.678 44.338c-7.209 10.435-21.563 13.059-31.997 5.849-10.434-7.208-13.057-21.563-5.848-31.996 7.208-10.434 21.562-13.06 31.997-5.849 5.055 3.492 8.446 8.743 9.551 14.787 1.104 6.043-.211 12.156-3.703 17.209z"/><path d="m184.003 181.522c3.21.492 6.471-1.206 7.879-4.197.508-1.068 12.327-26.401 1.679-45.875-10.599-19.387-38.513-23.754-39.696-23.931-3.265-.491-6.463 1.216-7.879 4.197-.508 1.068-12.327 26.401-1.679 45.875 10.599 19.388 38.513 23.755 39.696 23.931zm-26.584-57.822c6.955 1.97 18.294 6.374 22.98 14.946 4.391 8.029 2.37 19.384.039 26.726-7.598-2.168-18.527-6.848-22.971-14.976-4.384-8.018-2.374-19.353-.048-26.696z"/><path d="m435.237 274.63c14.941-16.275 10.092-44.109 9.878-45.286-.59-3.247-3.232-5.727-6.51-6.109-1.175-.14-28.964-3.173-43.975 13.178-14.942 16.275-10.092 44.108-9.878 45.286 2.007 6.488 5.452 6.253 12.969 6.416 9.373-.001 26.739-1.747 37.516-13.485zm-11.049-10.145c-6.189 6.741-17.59 8.482-25.291 8.64-.393-7.892.52-19.745 6.784-26.568 6.189-6.742 17.589-8.483 25.291-8.641.392 7.892-.52 19.746-6.784 26.569z"/><path d="m222.868 439.938c17.375 4.637 43.632-15.17 43.418-16.226 2.41-2.255 3.063-5.819 1.609-8.781-.521-1.063-13.021-26.065-34.896-29.828-21.775-3.747-42.545 15.408-43.418 16.227-2.41 2.254-3.063 5.818-1.609 8.78.522 1.063 13.021 26.066 34.896 29.828zm7.589-40.051c.001 0 .001 0 0 0 9.02 1.551 16.659 10.191 20.962 16.58-6.42 4.604-16.875 10.259-26.009 8.688-9.019-1.551-16.658-10.191-20.961-16.58 6.42-4.605 16.879-10.26 26.008-8.688z"/><path d="m366.94 367.142c16.642 5.379 35.421-3.989 40.764-21.231 5.385-17.092-4.14-35.379-21.232-40.765-17.093-5.387-35.378 4.14-40.764 21.231-5.385 17.092 4.14 35.379 21.232 40.765zm-6.925-36.257c2.877-9.285 12.988-14.329 21.95-11.433 9.204 2.9 14.332 12.747 11.433 21.95-2.9 9.202-12.746 14.33-21.95 11.433-9.204-2.9-14.333-12.747-11.433-21.95z"/><path d="m287.315 341.099c13.971 4.736 30.356-3.775 34.493-17.965 4.734-14.006-3.775-30.343-17.965-34.493-14.008-4.731-30.342 3.774-34.493 17.965-4.557 14.462 3.503 29.936 17.965 34.493zm-3.658-29.986c1.881-6.45 9.328-10.319 15.678-8.166 6.45 1.887 10.318 9.312 8.167 15.679-1.887 6.45-9.312 10.318-15.678 8.166-6.575-2.071-10.238-9.104-8.167-15.679z"/><path d="m114.5 164c-15.164 0-27.5 12.337-27.5 27.5s12.336 27.5 27.5 27.5 27.5-12.337 27.5-27.5-12.336-27.5-27.5-27.5zm0 40c-6.893 0-12.5-5.607-12.5-12.5s5.607-12.5 12.5-12.5 12.5 5.607 12.5 12.5-5.607 12.5-12.5 12.5z"/><path d="m302.267 426.726c18.435 5.959 39.236-4.419 45.154-23.519 5.965-18.933-4.585-39.188-23.519-45.154-18.931-5.964-39.188 4.586-45.154 23.519-5.964 18.932 4.586 39.188 23.519 45.154zm-9.212-40.647c3.453-11.143 15.586-17.196 26.34-13.72 11.044 3.48 17.199 15.296 13.719 26.34-3.48 11.045-15.296 17.199-26.34 13.72-11.044-3.48-17.198-15.296-13.719-26.34z"/><path d="m243.787 106.743c-22.743 17.841-35.787 44.633-35.787 73.507 0 51.487 41.888 93.375 93.375 93.375s93.375-41.888 93.375-93.375-41.888-93.375-93.375-93.375c-7.984 0-15.917 1.011-23.579 3.004-4.009 1.044-6.413 5.139-5.37 9.147s5.14 6.41 9.147 5.37c6.429-1.673 13.091-2.521 19.802-2.521 43.216 0 78.375 35.159 78.375 78.375s-35.159 78.375-78.375 78.375-78.375-35.159-78.375-78.375c0-24.235 10.951-46.727 30.045-61.704 3.259-2.557 3.829-7.271 1.272-10.53-2.557-3.261-7.271-3.828-10.53-1.273z"/><path d="m302.023 201.88-9.591 27.99c-1.351 3.943-.655 8.284 1.862 11.612 2.368 3.13 6.04 4.948 9.929 4.948.226 0 .454-.007.681-.019 17.803-.972 34.732-9.237 46.446-22.677 2.726-3.127 3.711-7.393 2.635-11.409-1.082-4.035-4.084-7.253-8.034-8.606l-28.05-9.612c-6.519-2.234-13.642 1.251-15.878 7.773zm35.409 14.776c-7.981 7.872-18.443 12.978-29.56 14.428l7.531-21.977z"/><path d="m280.061 181.141-28.295-9.696c-3.95-1.355-8.295-.653-11.625 1.871-3.314 2.514-5.152 6.488-4.916 10.632 1.021 17.928 9.417 34.915 23.034 46.605 2.286 1.963 5.167 3.005 8.109 3.005 1.095 0 2.199-.145 3.283-.439 4.013-1.091 7.212-4.089 8.56-8.02l9.622-28.081c1.083-3.158.871-6.55-.598-9.549s-4.017-5.247-7.174-6.328zm-14.798 35.469c-8.007-7.984-13.211-18.507-14.702-29.723l22.272 7.632z"/><path d="m298.163 114.08c-18.171.903-35.374 9.348-47.198 23.169-2.686 3.141-3.638 7.399-2.547 11.394 1.094 4.006 4.091 7.2 8.015 8.544l28.492 9.765c1.337.458 2.699.675 4.039.675 5.195 0 10.061-3.267 11.837-8.448l9.784-28.551c0-.001 0-.001 0-.001 1.347-3.931.658-8.262-1.843-11.585-2.492-3.313-6.447-5.161-10.579-4.962zm-10.742 37.87-22.51-7.714c8.107-8.168 18.818-13.427 30.241-14.848z"/><path d="m351.008 189.596c1.325.454 2.695.677 4.057.677 2.674 0 5.316-.858 7.517-2.511 3.309-2.484 5.168-6.431 4.974-10.557-.853-18.046-9.167-35.189-22.81-47.038-3.131-2.719-7.396-3.699-11.41-2.616-4.029 1.084-7.241 4.085-8.592 8.028l-9.752 28.461c-2.235 6.52 1.251 13.642 7.772 15.877zm-13.324-45.506c8.03 8.104 13.19 18.754 14.571 30.077l-22.264-7.629z"/></g></g></svg>