<?xml version="1.0" encoding="iso-8859-1"?>
<!-- Generator: Adobe Illustrator 19.0.0, SVG Export Plug-In . SVG Version: 6.00 Build 0)  -->
<svg version="1.1" id="Capa_1" xmlns="http://www.w3.org/2000/svg" xmlns:xlink="http://www.w3.org/1999/xlink" x="0px" y="0px"
	 viewBox="0 0 512 512" style="enable-background:new 0 0 512 512;" xml:space="preserve">
<circle style="fill:#D8AD8F;" cx="256.16" cy="256" r="248.5"/>
<g>
	<path style="fill:#C19476;" d="M475.235,273.203c-0.447-9.093-2.948-18.151-7.231-26.193c-1.125-2.114-2.297-4.035-3.429-5.893
		c-1.878-3.082-4.007-6.574-4.058-8.327c-0.026-0.879,0.423-2.806,0.819-4.507c0.242-1.036,0.481-2.072,0.689-3.091
		c4.707-22.88-3.184-48.023-21.108-67.258c-8.681-9.315-18.522-17.043-28.96-22.901c-1.788-6.628-4.912-12.836-9.273-18.309
		c-7.29-9.167-17.627-15.552-29.109-17.979c-3.434-0.726-6.949-1.094-10.446-1.094c-0.725,0-1.449,0.016-2.171,0.047
		c-9.165-14.852-23.999-25.415-41.499-29.106c-4.387-0.922-8.869-1.39-13.32-1.39c-9.314,0-18.535,2.066-26.954,5.951
		c-10.346-10.972-23.746-18.519-38.85-21.7c-5.091-1.073-10.293-1.616-15.459-1.616c-28.109,0-53.557,15.532-66.389,40.491
		c-3.061,5.905-5.319,12.255-6.709,18.863c-0.344,1.627-0.613,3.15-0.822,4.654c-0.589,4.003-0.843,8.041-0.774,12.069
		c-7.22,6.191-13.058,13.939-16.997,22.723c-3.186-0.489-6.433-0.756-9.73-0.756c-35.659,0-64.67,29.011-64.67,64.67
		c0,20.563,9.918,40.084,26.52,52.214c11.132,8.149,24.324,12.456,38.15,12.456c13.469,0,25.986-4.144,36.353-11.217
		c4.4,2.056,9.075,3.641,13.97,4.674l5.341,1.127l31.03-16.558c3.263,9.096,8.267,17.003,12.752,24.087
		c1.315,2.078,2.558,4.04,3.744,6c5.966,9.88,8.413,17.236,7.701,23.132c-0.967,7.936-2.419,48.504,64.109,67.895
		c2.094,0.615,4.299,1.219,6.569,1.798c16.07,4.08,31.664,6.149,46.351,6.149c9.325,0,18.4-0.841,26.97-2.5
		c8.559-1.656,16.811-4.167,24.525-7.464c32.329-13.815,57.804-41.14,68.141-73.076
		C474.287,291.183,475.669,282.002,475.235,273.203z"/>
	<path style="fill:#C19476;" d="M192.211,437.66c-31.647,0-61.4-12.324-83.777-34.702c-46.195-46.195-46.195-121.359,0-167.554
		c22.377-22.378,52.13-34.702,83.777-34.702c31.646,0,61.399,12.324,83.777,34.702c46.195,46.195,46.195,121.359,0,167.554
		C253.61,425.336,223.857,437.66,192.211,437.66z"/>
</g>
<path style="fill:#B9F268;" d="M397.933,155.56c-3.93,18.7-21.89,30.85-40.57,27.77c-0.52-0.09-1.04-0.18-1.56-0.29
	c-8.09-1.71-14.94-6.04-19.88-11.91l-84.76,45.23l-44.47,23.73L176.873,256c-21.18-4.47-36.31-21.88-38.87-42.23
	c-0.16-1.33-0.28-2.67-0.33-4.02c-0.18-4.05,0.14-8.18,1.02-12.33c4.12-19.57,19.3-33.96,37.63-38.06c-1.65-2.3-3.14-4.73-4.43-7.26
	c-1.11-2.08-2.06-4.24-2.9-6.46c-3.48-9.2-4.72-19.35-3.19-29.67c0.17-1.23,0.39-2.45,0.65-3.68c1.13-5.37,2.94-10.41,5.35-15.06
	c12-23.34,38.52-36.77,65.44-31.1c16.52,3.48,29.98,13.48,38.3,26.73c11.11-8.78,25.89-12.73,40.83-9.59
	c17.16,3.62,30.35,15.74,36.09,31.02c5.64-1.77,11.81-2.18,18.01-0.87c8.42,1.78,15.5,6.39,20.47,12.64
	c4.59,5.76,7.37,12.91,7.73,20.51C398.803,149.52,398.573,152.54,397.933,155.56z"/>
<path style="fill:#8BCC3F;" d="M397.933,155.56c-3.93,18.7-21.89,30.85-40.57,27.77c-0.52-0.09-1.04-0.18-1.56-0.29
	c-8.09-1.71-14.94-6.04-19.88-11.91l-84.76,45.23l-44.47,23.73c-0.08-0.67-0.14-1.34-0.19-2.02c-4.64,1.05-9.43,1.6-14.29,1.6
	c-19.15,0-37.21-8.42-49.54-23.11c-1.82-2.17-3.49-4.44-5-6.81c-0.18-4.05,0.14-8.18,1.02-12.33c4.12-19.57,19.3-33.96,37.63-38.06
	c-1.65-2.3-3.14-4.73-4.43-7.26c-1.11-2.08-2.06-4.24-2.9-6.46c-3.48-9.2-4.72-19.35-3.19-29.67c8.07-3.62,17.01-5.64,26.41-5.64
	c24.73,0,46.25,13.96,57.13,34.41c23.51-16.49,54.16-25.22,88.86-25.22c14.33,0,29.24,1.5,44.32,4.46c2.82,0.55,5.63,1.25,8.42,2.08
	c4.59,5.76,7.37,12.91,7.73,20.51C398.803,149.52,398.573,152.54,397.933,155.56z"/>
<path style="fill:#FB4239;" d="M173.123,212.55c0,27.43-22.23,49.67-49.67,49.67c-10.95,0-21.08-3.55-29.29-9.56
	c-12.36-9.03-20.38-23.63-20.38-40.11c0-27.43,22.24-49.67,49.67-49.67c23.96,0,43.95,16.96,48.63,39.52
	C172.763,205.68,173.123,209.07,173.123,212.55z"/>
<path style="fill:#E21717;" d="M173.123,212.55c0,27.43-22.23,49.67-49.67,49.67c-10.95,0-21.08-3.55-29.29-9.56
	c4.12-6.09,8.88-11.87,14.27-17.26c17.56-17.55,39.66-28.92,63.65-33C172.763,205.68,173.123,209.07,173.123,212.55z"/>
<path style="fill:#FB4239;" d="M241.883,175c0,12.16-4.37,23.29-11.62,31.92c-9.11,10.85-22.78,17.75-38.05,17.75
	s-28.94-6.9-38.05-17.75c-7.25-8.63-11.62-19.76-11.62-31.92c0-27.43,22.24-49.67,49.67-49.67S241.883,147.57,241.883,175z"/>
<path style="fill:#E21717;" d="M230.263,206.92c-9.11,10.85-22.78,17.75-38.05,17.75s-28.94-6.9-38.05-17.75
	c12.1-4.1,24.9-6.22,38.05-6.22C205.353,200.7,218.173,202.82,230.263,206.92z"/>
<path style="fill:#F9E8D4;" d="M256.069,158.332c-6.498,4.776-12.583,10.255-17.148,16.903c-4.299,6.26-7.141,13.391-9.725,20.532
	c-5.947,16.436-10.737,34.398-5.96,51.211c3.168,11.15,10.249,20.685,16.246,30.604c5.997,9.919,11.143,21.188,9.747,32.694
	c-0.95,7.829,0.593,38.381,59.482,53.346c29.149,7.408,60.609,8.739,88.266-3.079c27.657-11.818,50.502-35.307,59.773-63.918
	c2.371-7.318,3.881-14.998,3.504-22.681c-0.34-6.922-2.227-13.764-5.485-19.881c-3.612-6.784-9.029-13.154-9.25-20.836
	c-0.108-3.744,1.063-7.389,1.817-11.058c3.954-19.249-3.992-39.633-17.389-54.009s-31.038-25.684-50.32-29.466
	C330.307,129.02,285.918,136.393,256.069,158.332z"/>
<circle style="fill:#FEC007;" cx="368.61" cy="251.69" r="48.48"/>
<path style="fill:#F9E8D4;" d="M456.743,296.63c-9.26,28.61-32.11,52.1-59.77,63.92c-6.95,2.97-14.14,5.11-21.48,6.53
	c-21.85,4.23-44.96,2.08-66.78-3.46c-2.08-0.53-4.09-1.08-6.03-1.65c-52.97-15.44-54.37-44.14-53.45-51.69
	c1.39-11.51-3.76-22.78-9.75-32.7c-6-9.92-13.08-19.45-16.25-30.6c-2.9-10.2-2.28-20.84,0-31.29c0.74-3.41,1.65-6.8,2.67-10.15
	c1.02-3.3,2.13-6.56,3.29-9.77c2.59-7.14,5.43-14.28,9.73-20.54c4.56-6.64,10.65-12.12,17.15-16.9
	c29.84-21.94,74.24-29.31,123.56-19.63c19.27,3.78,36.91,15.08,50.31,29.46c13.4,14.38,21.35,34.76,17.39,54.01
	c-0.75,3.67-1.92,7.31-1.81,11.06c0.22,7.68,5.63,14.05,9.24,20.83c3.26,6.12,5.15,12.97,5.49,19.88
	C460.633,281.63,459.123,289.31,456.743,296.63z"/>
<path style="fill:#EFCDB1;" d="M302.683,361.97c-52.97-15.44-54.37-44.14-53.45-51.69c1.39-11.51-3.76-22.78-9.75-32.7
	c-6-9.92-13.08-19.45-16.25-30.6c-2.9-10.2-2.28-20.84,0-31.29c0.74-3.41,1.65-6.8,2.67-10.15c18.73,5.52,35.89,15.67,50.08,29.86
	C310.143,269.56,319.043,319.56,302.683,361.97z"/>
<circle style="fill:#FEC007;" cx="368.61" cy="251.69" r="48.48"/>
<circle style="fill:#F9DE69;" cx="361.43" cy="237.46" r="16.234"/>
<circle style="fill:#B96340;" cx="192.21" cy="319.18" r="103.48"/>
<path style="fill:#A24223;" d="M265.384,392.354c-40.411,40.411-105.932,40.411-146.343,0c-2.503-2.503-4.858-5.112-7.057-7.792
	c40.652,33.199,100.643,30.851,138.551-7.057s40.256-97.899,7.057-138.551c2.68,2.199,5.289,4.554,7.792,7.057
	C305.795,286.423,305.795,351.943,265.384,392.354z"/>
<path d="M504.718,261.341c-4.133-0.227-7.661,2.972-7.871,7.109C490.328,396.609,384.607,497,256.163,497
	c-132.888,0-241-108.112-241-241s108.112-241,241-241c126.732,0,232.363,98.971,240.479,225.316
	c0.265,4.133,3.822,7.274,7.965,7.003c4.133-0.265,7.269-3.832,7.003-7.965c-4.164-64.828-32.582-125.125-80.02-169.788
	C383.941,24.706,321.64,0,256.163,0c-68.38,0-132.667,26.629-181.02,74.98C26.792,123.333,0.163,187.62,0.163,256
	s26.629,132.667,74.98,181.02c48.352,48.352,112.64,74.98,181.02,74.98c136.438,0,248.739-106.645,255.664-242.788
	C512.038,265.075,508.854,261.551,504.718,261.341z"/>
<path d="M256.163,419c41.112,0,80.2-15.278,110.368-43.06c11.942-1.293,23.146-4.125,33.387-8.503
	c30.347-12.957,54.261-38.563,63.97-68.497c2.983-9.214,4.245-17.509,3.856-25.357c-0.392-7.992-2.587-15.959-6.355-23.055
	c-1.022-1.914-2.132-3.734-3.207-5.494c-2.6-4.259-5.056-8.283-5.163-12.024c-0.054-1.853,0.464-4.075,1.012-6.429
	c0.226-0.969,0.451-1.939,0.647-2.9c4.155-20.2-3.221-43.434-19.249-60.634c-8.949-9.604-19.184-17.407-30.01-23.036
	c-3.249-16.929-16.213-30.304-33.397-33.93c-5.002-1.057-10.162-1.207-15.205-0.461c-7.786-15.204-21.926-26.109-38.903-29.691
	c-13.994-2.942-28.381-0.537-40.521,6.596c-9.701-12.156-23.164-20.482-38.604-23.735c-0.352-0.074-0.704-0.137-1.06-0.198
	l-0.305-0.054c-4.077-0.731-7.977,1.973-8.713,6.049c-0.735,4.077,1.973,7.977,6.049,8.713l0.409,0.072
	c0.177,0.031,0.352,0.059,0.527,0.096c13.981,2.945,25.877,11.249,33.494,23.379c1.132,1.804,2.979,3.041,5.078,3.403
	c2.1,0.36,4.253-0.186,5.924-1.507c9.792-7.738,22.418-10.703,34.632-8.136c14.098,2.974,25.544,12.813,30.617,26.319
	c1.4,3.727,5.467,5.711,9.267,4.519c4.598-1.442,9.514-1.681,14.216-0.688c7.402,1.562,13.593,5.906,17.56,11.848
	c-1.803-0.481-3.609-0.921-5.419-1.277c-50.641-9.929-97.817-2.29-129.436,20.958c-1.892,1.392-3.664,2.788-5.344,4.191
	c-7.761-22.534-29.24-38.649-54.073-38.649c-6.807,0-13.35,1.186-19.43,3.362c0.165-2.461,0.495-4.918,1.01-7.358
	c0.974-4.629,2.545-9.054,4.682-13.176c6.351-12.359,17.658-21.826,31.022-25.976c3.956-1.228,6.167-5.431,4.939-9.386
	c-1.227-3.956-5.429-6.167-9.386-4.939c-17.188,5.336-31.736,17.526-39.905,33.421c-2.749,5.303-4.778,11.011-6.03,16.962
	c-1.292,6.118-1.722,12.33-1.295,18.506c-9.211,6.912-16.273,16.585-19.957,27.975c-4.605-1.2-9.433-1.842-14.409-1.842
	c-31.523,0-57.17,25.646-57.17,57.17c0,21.396,11.683,40.576,30.236,50.445c-15.291,26.044-19.53,57.623-10.817,87.424
	c1.163,3.976,5.328,6.255,9.304,5.094c3.976-1.163,6.256-5.328,5.094-9.304c-9.859-33.72-0.57-70.082,24.244-94.895
	c37.421-37.421,98.312-37.423,135.735,0c37.421,37.422,37.421,98.313,0,135.735c-37.422,37.422-98.313,37.422-135.735,0
	c-4.882-4.882-9.244-10.296-12.965-16.091c-2.237-3.485-6.876-4.498-10.363-2.259c-3.485,2.238-4.497,6.877-2.259,10.363
	c4.3,6.698,9.34,12.954,14.98,18.594c19.908,19.908,45.559,30.649,71.669,32.238c0.47,3.69,3.615,6.545,7.433,6.545
	c3.845,0,7.009-2.894,7.444-6.622c14.358-1.038,28.55-4.854,41.698-11.438C246.65,418.783,251.407,419,256.163,419z M192.213,132.83
	c21.124,0,38.96,15.798,41.776,36.44c-0.424,0.573-0.851,1.144-1.248,1.723c-4.963,7.225-8.073,15.257-10.601,22.226
	c-2.423,6.699-4.203,12.44-5.503,17.74c-6.009-1.346-12.109-2.188-18.232-2.527c0.823-1.204,1.305-2.658,1.305-4.226V182.5h21.707
	c4.142,0,7.5-3.358,7.5-7.5s-3.358-7.5-7.5-7.5H199.71v-21.707c0-4.142-3.358-7.5-7.5-7.5s-7.5,3.358-7.5,7.5V167.5h-21.707
	c-1.218,0-2.365,0.297-3.383,0.813c-2.447-2.004-5.068-3.8-7.828-5.382C157.018,145.207,173.246,132.83,192.213,132.83z
	 M186.016,208.433c-1.844,0.102-3.685,0.251-5.523,0.444c-0.614-9.63-3.618-18.618-8.432-26.377h12.65v21.707
	C184.71,205.775,185.193,207.229,186.016,208.433z M105.05,250.505c-14.532-7.031-23.767-21.617-23.767-37.956
	c0-23.252,18.917-42.17,42.17-42.17c22.89,0,41.566,18.336,42.143,41.089c-1.828,0.448-3.646,0.946-5.453,1.489
	c0.007-0.135,0.02-0.268,0.02-0.405c0-4.142-3.358-7.5-7.5-7.5h-21.707v-21.707c0-4.142-3.358-7.5-7.5-7.5s-7.5,3.358-7.5,7.5
	v21.707H94.25c-4.142,0-7.5,3.358-7.5,7.5s3.358,7.5,7.5,7.5h21.707v18.498c-0.747,0.707-1.488,1.424-2.22,2.156
	C110.624,243.82,107.735,247.099,105.05,250.505z M142.305,220.053c-3.881,1.95-7.673,4.138-11.349,6.573v-6.573H142.305z
	 M270.685,240.707c-11.611-11.611-25.177-20.102-39.648-25.482c1.181-4.958,2.859-10.408,5.206-16.898
	c2.21-6.091,4.899-13.072,8.865-18.846c3.517-5.129,8.557-10.071,15.408-15.109c28.246-20.768,71.132-27.445,117.661-18.323
	c16.507,3.243,32.943,12.912,46.279,27.224c12.773,13.707,18.724,31.863,15.529,47.395c-0.171,0.837-0.367,1.673-0.562,2.509
	c-0.707,3.034-1.508,6.473-1.397,10.267c0.222,7.72,4.01,13.927,7.353,19.404c1.008,1.651,1.959,3.21,2.77,4.729
	c2.733,5.147,4.329,10.936,4.613,16.744c0.297,6.003-0.731,12.545-3.144,19.995c-8.39,25.868-29.172,48.046-55.594,59.328
	c-22.959,9.814-51.82,10.75-83.461,2.708c-4.419-1.125-8.618-2.374-12.554-3.729C310.018,314.41,300.914,270.937,270.685,240.707z
	 M292.548,366.601c4.498,1.569,9.284,3.007,14.317,4.288c12.142,3.086,23.948,4.933,35.29,5.586
	c-22.848,16.353-49.822,25.828-78.126,27.312c2.281-1.939,4.503-3.98,6.656-6.132C279.965,388.374,287.249,377.843,292.548,366.601z
	"/>
<path d="M368.611,307.673c30.87,0,55.985-25.115,55.985-55.985c0-30.871-25.115-55.985-55.985-55.985
	c-30.871,0-55.985,25.115-55.985,55.985C312.625,282.558,337.74,307.673,368.611,307.673z M368.611,210.703
	c22.599,0,40.985,18.386,40.985,40.985s-18.386,40.985-40.985,40.985c-22.6,0-40.985-18.386-40.985-40.985
	C327.625,229.088,346.011,210.703,368.611,210.703z"/>
<path d="M281.105,208.204c-4.142,0-7.5,3.358-7.5,7.5v0.938c0,4.142,3.358,7.5,7.5,7.5s7.5-3.358,7.5-7.5v-0.938
	C288.605,211.562,285.247,208.204,281.105,208.204z"/>
<path d="M314.757,171.37v-0.938c0-4.142-3.358-7.5-7.5-7.5s-7.5,3.358-7.5,7.5v0.938c0,4.142,3.358,7.5,7.5,7.5
	S314.757,175.512,314.757,171.37z"/>
<path d="M180.663,362v-0.938c0-4.142-3.358-7.5-7.5-7.5s-7.5,3.358-7.5,7.5V362c0,4.142,3.358,7.5,7.5,7.5
	S180.663,366.142,180.663,362z"/>
<path d="M202.788,369.775c0,4.142,3.358,7.5,7.5,7.5s7.5-3.358,7.5-7.5v-0.938c0-4.142-3.358-7.5-7.5-7.5s-7.5,3.358-7.5,7.5
	V369.775z"/>
<path d="M231.663,360.593v0.938c0,4.142,3.358,7.5,7.5,7.5s7.5-3.358,7.5-7.5v-0.938c0-4.142-3.358-7.5-7.5-7.5
	S231.663,356.451,231.663,360.593z"/>
<path d="M210.288,305.099c4.142,0,7.5-3.358,7.5-7.5v-0.938c0-4.142-3.358-7.5-7.5-7.5s-7.5,3.358-7.5,7.5v0.938
	C202.788,301.741,206.145,305.099,210.288,305.099z"/>
<path d="M250.663,319.65v-0.938c0-4.142-3.358-7.5-7.5-7.5s-7.5,3.358-7.5,7.5v0.938c0,4.142,3.358,7.5,7.5,7.5
	S250.663,323.792,250.663,319.65z"/>
<path d="M221.663,439.593v0.938c0,4.142,3.358,7.5,7.5,7.5s7.5-3.358,7.5-7.5v-0.938c0-4.142-3.358-7.5-7.5-7.5
	S221.663,435.451,221.663,439.593z"/>
<path d="M54.663,283v0.938c0,4.142,3.358,7.5,7.5,7.5s7.5-3.358,7.5-7.5V283c0-4.142-3.358-7.5-7.5-7.5S54.663,278.858,54.663,283z"
	/>
<g>
</g>
<g>
</g>
<g>
</g>
<g>
</g>
<g>
</g>
<g>
</g>
<g>
</g>
<g>
</g>
<g>
</g>
<g>
</g>
<g>
</g>
<g>
</g>
<g>
</g>
<g>
</g>
<g>
</g>
</svg>
